<svg width="24" height="24" viewBox="0 0 24 24" fill="none" xmlns="http://www.w3.org/2000/svg">
<path d="M21.0005 16V8.00002C21.0001 7.6493 20.9075 7.30483 20.732 7.00119C20.5565 6.69754 20.3042 6.44539 20.0005 6.27002L13.0005 2.27002C12.6964 2.09449 12.3516 2.00208 12.0005 2.00208C11.6494 2.00208 11.3045 2.09449 11.0005 2.27002L4.00049 6.27002C3.69675 6.44539 3.44447 6.69754 3.26895 7.00119C3.09343 7.30483 3.00085 7.6493 3.00049 8.00002V16C3.00085 16.3508 3.09343 16.6952 3.26895 16.9989C3.44447 17.3025 3.69675 17.5547 4.00049 17.73L11.0005 21.73C11.3045 21.9056 11.6494 21.998 12.0005 21.998C12.3516 21.998 12.6964 21.9056 13.0005 21.73L20.0005 17.73C20.3042 17.5547 20.5565 17.3025 20.732 16.9989C20.9075 16.6952 21.0001 16.3508 21.0005 16Z" stroke="white" stroke-width="2" stroke-linecap="round" stroke-linejoin="round"/>
<path d="M3.27051 6.95996L12.0005 12.01L20.7305 6.95996" stroke="white" stroke-width="2" stroke-linecap="round" stroke-linejoin="round"/>
<path d="M12.0005 22.08V12" stroke="white" stroke-width="2" stroke-linecap="round" stroke-linejoin="round"/>
</svg>
