<svg width="25" height="25" viewBox="0 0 25 25" fill="none" xmlns="http://www.w3.org/2000/svg">
<path d="M17.1182 3.63363C17.3808 3.37099 17.6926 3.16265 18.0358 3.02051C18.3789 2.87837 18.7467 2.80521 19.1182 2.80521C19.4896 2.80521 19.8574 2.87837 20.2006 3.02051C20.5437 3.16265 20.8555 3.37099 21.1182 3.63363C21.3808 3.89628 21.5891 4.20808 21.7313 4.55124C21.8734 4.8944 21.9466 5.2622 21.9466 5.63363C21.9466 6.00507 21.8734 6.37286 21.7313 6.71603C21.5891 7.05919 21.3808 7.37099 21.1182 7.63363L7.61816 21.1336L2.11816 22.6336L3.61816 17.1336L17.1182 3.63363Z" stroke="white" stroke-width="2" stroke-linecap="round" stroke-linejoin="round"/>
</svg>
