<svg width="25" height="24" viewBox="0 0 25 24" fill="none" xmlns="http://www.w3.org/2000/svg">
<g opacity="0.5">
<rect x="2.50049" y="2" width="20" height="20" stroke="black" stroke-width="2" stroke-linecap="round" stroke-linejoin="round"/>
<path d="M10.0105 14L10.0005 12.145L9.10049 13.655H8.66049L7.76549 12.195V14H6.85049V10.5H7.66549L8.89549 12.52L10.0955 10.5H10.9105L10.9205 14H10.0105ZM13.966 13.32H12.486L12.211 14H11.201L12.746 10.5H13.721L15.271 14H14.241L13.966 13.32ZM13.676 12.59L13.226 11.47L12.776 12.59H13.676ZM17.5712 14L16.8462 12.915L16.1312 14H15.0012L16.2762 12.23L15.0562 10.5H16.1712L16.8712 11.51L17.5612 10.5H18.6312L17.4112 12.19L18.7112 14H17.5712Z" fill="black"/>
</g>
</svg>
