<svg width="25" height="24" viewBox="0 0 25 24" fill="none" xmlns="http://www.w3.org/2000/svg">
<g opacity="0.5">
<path fill-rule="evenodd" clip-rule="evenodd" d="M1.34668 16.5001C1.34668 15.9478 1.79439 15.5001 2.34668 15.5001H22.6544C23.2067 15.5001 23.6544 15.9478 23.6544 16.5001V22.1538C23.6544 22.7061 23.2067 23.1538 22.6544 23.1538H18.6736C18.1213 23.1538 17.6736 22.7061 17.6736 22.1538V21.1681H15.001V22.1538C15.001 22.7061 14.5533 23.1538 14.001 23.1538H11.3081H10.4427C10.1722 23.1538 9.91317 23.0442 9.72483 22.85C9.53649 22.6558 9.43488 22.3935 9.4432 22.1231L9.46926 21.2755H7.32745V22.1538C7.32745 22.7061 6.87973 23.1538 6.32745 23.1538H2.34668C1.79439 23.1538 1.34668 22.7061 1.34668 22.1538V16.5001ZM5.32745 21.1538V20.2755C5.32745 19.7232 5.77516 19.2755 6.32745 19.2755H10.5005C10.771 19.2755 11.03 19.3851 11.2184 19.5793C11.4067 19.7736 11.5083 20.0358 11.5 20.3062L11.4739 21.1538H13.001V20.1681C13.001 19.6159 13.4487 19.1681 14.001 19.1681H18.6736C19.2259 19.1681 19.6736 19.6159 19.6736 20.1681V21.1538H21.6544V17.5001H3.34668V21.1538H5.32745Z" fill="black"/>
<path d="M12.0005 2V11M12.0005 11L8.00049 7.5M12.0005 11L16.0005 7.5" stroke="black" stroke-width="2" stroke-linecap="round" stroke-linejoin="round"/>
</g>
</svg>
