<?xml version="1.0" encoding="UTF-8" standalone="no"?>
<svg
   xmlns:dc="http://purl.org/dc/elements/1.1/"
   xmlns:cc="http://creativecommons.org/ns#"
   xmlns:rdf="http://www.w3.org/1999/02/22-rdf-syntax-ns#"
   xmlns:svg="http://www.w3.org/2000/svg"
   xmlns="http://www.w3.org/2000/svg"
   viewBox="0 0 221.65334 51"
   height="51"
   width="221.65334"
   xml:space="preserve"
   id="svg2"
   version="1.1"><metadata
     id="metadata8"><rdf:RDF><cc:Work
         rdf:about=""><dc:format>image/svg+xml</dc:format><dc:type
           rdf:resource="http://purl.org/dc/dcmitype/StillImage" /></cc:Work></rdf:RDF></metadata><defs
     id="defs6" /><g
     transform="matrix(1.3333333,0,0,-1.3333333,0,51)"
     id="g10"><g
       transform="scale(0.1)"
       id="g12"><path
         id="path14"
         style="fill:#8d60b5;fill-opacity:1;fill-rule:nonzero;stroke:none"
         d="m 112.754,182.441 v 46.895 c 0,8.281 -2.078,14.531 -6.199,18.738 -4.145,4.199 -9.7191,6.301 -16.7308,6.301 -7.0234,0 -12.5898,-2.102 -16.7187,-6.301 -4.1485,-4.207 -6.211,-10.457 -6.211,-18.738 v -46.895 z m 66.887,0 V 143.945 L 0,144.063 v 38.378 h 17.2578 v 42.688 c 0,14.441 3.043,26.891 9.1485,37.351 6.0937,10.442 14.6093,18.399 25.5585,23.879 10.9375,5.446 23.5547,8.2 37.8594,8.2 14.2968,0 26.9218,-2.754 37.8638,-8.2 10.933,-5.48 19.46,-13.437 25.542,-23.879 6.118,-10.46 9.165,-22.91 9.165,-37.351 v -42.688 h 17.246" /><path
         id="path16"
         style="fill:#8d60b5;fill-opacity:1;fill-rule:nonzero;stroke:none"
         d="m 289.961,185.273 c 4.98,3.008 8.934,7.286 11.894,12.832 2.942,5.528 4.415,12.032 4.415,19.454 0,7.429 -1.473,13.925 -4.415,19.453 -2.96,5.554 -6.914,9.812 -11.894,12.824 -4.981,3.035 -10.535,4.539 -16.719,4.539 -6.172,0 -11.738,-1.504 -16.719,-4.539 -4.98,-3.012 -8.933,-7.27 -11.882,-12.824 -2.953,-5.528 -4.426,-12.024 -4.426,-19.453 0,-7.422 1.473,-13.926 4.426,-19.454 2.949,-5.546 6.902,-9.824 11.882,-12.832 4.981,-3.027 10.547,-4.531 16.719,-4.531 6.184,0 11.738,1.504 16.719,4.531 z m -59.414,-34.824 c -12.617,6.602 -22.512,15.762 -29.668,27.461 -7.149,11.699 -10.734,24.942 -10.734,39.649 0,14.726 3.585,27.949 10.734,39.636 7.156,11.723 17.051,20.879 29.668,27.465 12.605,6.59 26.848,9.899 42.695,9.899 15.84,0 30.071,-3.309 42.696,-9.899 12.617,-6.586 22.519,-15.742 29.66,-27.465 7.156,-11.687 10.73,-24.91 10.73,-39.636 0,-14.707 -3.574,-27.95 -10.73,-39.649 -7.141,-11.699 -17.043,-20.859 -29.66,-27.461 -12.625,-6.582 -26.856,-9.883 -42.696,-9.883 -15.847,0 -30.09,3.301 -42.695,9.883" /><path
         id="path18"
         style="fill:#8d60b5;fill-opacity:1;fill-rule:nonzero;stroke:none"
         d="m 408.281,150.352 c -12.468,6.523 -22.258,15.625 -29.343,27.343 -7.075,11.719 -10.618,25 -10.618,39.864 0,14.882 3.543,28.156 10.618,39.882 7.085,11.68 16.875,20.789 29.343,27.325 12.481,6.523 26.516,9.793 42.071,9.793 14.316,0 27.07,-2.547 38.293,-7.586 11.21,-5.032 20.464,-12.344 27.761,-21.868 l -31.347,-27.996 c -9.121,11.512 -19.832,17.266 -32.188,17.266 -10.371,0 -18.711,-3.34 -25.019,-9.988 -6.321,-6.672 -9.461,-15.61 -9.461,-26.828 0,-11.211 3.14,-20.176 9.461,-26.817 6.308,-6.66 14.648,-10 25.019,-10 12.356,0 23.067,5.762 32.188,17.246 l 31.347,-27.949 c -7.297,-9.551 -16.551,-16.836 -27.761,-21.894 -11.223,-5.059 -23.977,-7.579 -38.293,-7.579 -15.555,0 -29.59,3.262 -42.071,9.786" /><path
         id="path20"
         style="fill:#8d60b5;fill-opacity:1;fill-rule:nonzero;stroke:none"
         d="m 656.711,239.656 c -11.359,6.301 -22.863,10.649 -34.504,13.039 v -108.75 h -49.641 v 108.75 c -11.636,-2.39 -23.14,-6.738 -34.5,-13.039 L 521.66,274.98 c 10.528,6.321 22.305,11.153 35.344,14.524 13.047,3.355 26.512,5.055 40.391,5.055 13.882,0 27.339,-1.7 40.378,-5.055 13.04,-3.371 24.832,-8.203 35.34,-14.524 l -16.402,-35.324" /><path
         id="path22"
         style="fill:#8d60b5;fill-opacity:1;fill-rule:nonzero;stroke:none"
         d="m 780.598,211.055 v 15.547 c 0,9.121 -2.141,16.015 -6.41,20.722 -4.278,4.696 -9.918,7.051 -16.93,7.051 -7.016,0 -12.656,-2.355 -16.938,-7.051 -4.273,-4.707 -6.425,-11.601 -6.425,-20.722 v -15.547 z m 14.949,74.992 c 10.93,-5.703 19.441,-13.977 25.547,-24.836 6.101,-10.867 9.148,-23.809 9.148,-38.828 v -78.438 h -49.644 v 29.649 h -46.703 v -29.649 h -48.79 v 78.438 c 0,15.019 3.047,27.961 9.153,38.828 6.094,10.859 14.621,19.133 25.555,24.836 10.929,5.672 23.554,8.512 37.863,8.512 14.297,0 26.914,-2.84 37.871,-8.512" /><path
         id="path24"
         style="fill:#8d60b5;fill-opacity:1;fill-rule:nonzero;stroke:none"
         d="m 944.668,190.43 c 0,7.558 -4.063,11.347 -12.188,11.347 h -27.57 v -23.144 h 27.57 c 8.125,0 12.188,3.926 12.188,11.797 z m -39.758,44.172 h 21.047 c 8.125,0 12.195,3.562 12.195,10.73 0,7.434 -4.07,11.152 -12.195,11.152 H 904.91 Z m 83.313,-26.614 c 4.336,-5.8 6.511,-12.929 6.511,-21.347 0,-13.184 -5.222,-23.594 -15.671,-31.231 -10.45,-7.637 -25.208,-11.465 -44.29,-11.465 h -78.66 V 291.18 h 74.668 c 18.242,0 32.383,-3.367 42.403,-10.086 10.019,-6.719 15.039,-16.192 15.039,-28.399 0,-7.031 -1.66,-13.191 -4.961,-18.507 -3.282,-5.333 -7.949,-9.676 -13.977,-13.055 8.274,-2.949 14.582,-7.305 18.938,-13.145" /><path
         id="path26"
         style="fill:#8d60b5;fill-opacity:1;fill-rule:nonzero;stroke:none"
         d="m 1117.37,219.668 43.54,-75.723 h -55.95 l -28.19,53.223 h -13.88 v -53.223 h -49.63 V 291.18 h 49.63 v -54.879 h 15.15 l 31.34,54.879 h 51.74 l -43.75,-71.512" /><path
         id="path28"
         style="fill:#8d60b5;fill-opacity:1;fill-rule:nonzero;stroke:none"
         d="m 1267.56,211.055 v 15.547 c 0,9.121 -2.14,16.015 -6.43,20.722 -4.27,4.696 -9.91,7.051 -16.92,7.051 -7.02,0 -12.66,-2.355 -16.93,-7.051 -4.28,-4.707 -6.42,-11.601 -6.42,-20.722 v -15.547 z m 14.93,74.992 c 10.94,-5.703 19.46,-13.977 25.56,-24.836 6.1,-10.867 9.15,-23.809 9.15,-38.828 v -78.438 h -49.64 v 29.649 h -46.7 v -29.649 h -48.81 v 78.438 c 0,15.019 3.05,27.961 9.16,38.828 6.09,10.859 14.61,19.133 25.56,24.836 10.94,5.672 23.55,8.512 37.87,8.512 14.3,0 26.92,-2.84 37.85,-8.512" /><path
         id="path30"
         style="fill:#9dd420;fill-opacity:1;fill-rule:nonzero;stroke:none"
         d="m 1662.42,183.828 h -24.86 v -40.019 h -61.23 v 40.019 h -68.29 l -28.74,50.012 79.39,143.328 h 64.7 l -70.58,-132.332 h 25.39 v 35.652 h 59.36 v -35.652 h 24.86 v -61.008" /><path
         id="path32"
         style="fill:#9dd420;fill-opacity:1;fill-rule:nonzero;stroke:none"
         d="m 1308.41,318.711 c 16.19,-8.398 28.97,-20.77 37.96,-36.809 0.3,-0.515 0.54,-1.089 0.84,-1.629 5.11,16.465 19.63,40.411 42.33,41.473 6.58,0.313 13.13,-2.879 16.6,-6.082 3.49,-3.223 5.23,-7.734 5.23,-13.504 0,-4.66 -1.1,-9.453 -3.29,-14.336 -2.2,-4.894 -6.58,-10.761 -13.14,-17.656 l -35.73,-36.867 c 0.05,-1.555 0.13,-3.074 0.13,-4.656 v -75.598 -9.238 h 137.57 l -35.22,61.015 h -45.23 l 29.88,30.332 c 14.14,14.219 23.66,26.953 28.52,38.164 4.91,11.211 7.34,23.282 7.34,36.184 0,14.441 -3.58,27.195 -10.75,38.328 -7.16,11.102 -17.14,19.656 -29.89,25.664 -12.75,5.996 -27.4,9.004 -43.92,9.004 -21.74,0 -40.28,-4.812 -55.61,-14.512 -16.27,-10.304 -30.19,-28.406 -38.42,-46.972 1.62,-0.743 3.23,-1.473 4.8,-2.305" /><path
         id="path34"
         style="fill:#65686c;fill-opacity:1;fill-rule:nonzero;stroke:none"
         d="m 166.094,51.1328 c 0.84,0 1.203,-0.4687 1.203,-1.289 V 25.9766 l -0.461,-16.26957 0.644,-0.17578 19.883,26.15235 11.282,14.4336 c 0.632,0.6445 1.289,1.0156 2.019,1.0156 h 3.977 c 0.828,0 1.199,-0.4687 1.199,-1.289 V 1.95313 c 0,-0.83985 -0.371,-1.210942 -1.199,-1.210942 h -3.696 c -0.828,0 -1.211,0.371092 -1.211,1.210942 V 25.8008 l 0.469,16.3672 -0.73,0.1953 L 183.477,21.0742 168.125,1.50391 c -0.359,-0.46875 -0.93,-0.761722 -1.57,-0.761722 h -4.16 c -0.832,0 -1.196,0.371092 -1.196,1.210942 V 49.8438 c 0,0.8203 0.364,1.289 1.196,1.289 h 3.699" /><path
         id="path36"
         style="fill:#65686c;fill-opacity:1;fill-rule:nonzero;stroke:none"
         d="m 308.059,42.168 c 0.457,-0.4688 0.457,-1.2891 -0.188,-1.6602 l -2.773,-2.2265 c -0.457,-0.3711 -1.289,-0.293 -1.66,0.1757 -3.985,5.0977 -9.708,7.8711 -16.083,7.8711 -11.464,0 -19.882,-8.8672 -19.882,-20.3515 0,-11.543 8.418,-20.41019 19.882,-20.41019 6.375,0 12.208,2.65625 16.18,7.75389 0.36,0.4688 1.199,0.5469 1.66,0.1953 l 2.676,-2.2461 c 0.645,-0.4492 0.742,-0.9961 0.188,-1.66012 C 302.883,3.24219 295.762,0 287.355,0 c -14.882,0 -26.078,10.918 -26.078,25.9766 0,14.9023 11.567,25.8789 26.078,25.8789 8.407,0 15.528,-3.3203 20.704,-9.6875" /><path
         id="path38"
         style="fill:#65686c;fill-opacity:1;fill-rule:nonzero;stroke:none"
         d="m 368.301,51.1328 c 0.832,0 1.203,-0.3711 1.203,-1.2109 V 24.9805 l 27.461,25.4101 c 0.457,0.4688 1.004,0.7422 1.656,0.7422 h 5.274 c 1.378,0 1.105,-1.289 0.648,-1.7578 L 382.727,29.5703 406.387,2.5 c 0.468,-0.64453 0.84,-1.757812 -0.547,-1.757812 h -4.988 c -0.754,0 -1.301,0.292972 -1.77,0.839842 L 378.563,25.7031 369.504,18.2227 V 1.95313 c 0,-0.83985 -0.371,-1.210942 -1.203,-1.210942 h -3.699 c -0.832,0 -1.196,0.371092 -1.196,1.210942 V 49.9219 c 0,0.8398 0.364,1.2109 1.196,1.2109 h 3.699" /><path
         id="path40"
         style="fill:#65686c;fill-opacity:1;fill-rule:nonzero;stroke:none"
         d="m 484.746,21.3672 c 8.145,0 12.578,5.0781 12.578,12.1094 0,6.9336 -4.433,12.1093 -12.578,12.1093 H 466.531 V 21.3672 Z m 0,29.7656 c 10.828,0 18.692,-7.6758 18.692,-17.6562 0,-10.0782 -7.864,-17.6563 -18.692,-17.6563 H 466.531 V 1.95313 c 0,-0.83985 -0.359,-1.210942 -1.187,-1.210942 h -3.703 c -0.828,0 -1.203,0.371092 -1.203,1.210942 V 49.9219 c 0,0.8398 0.375,1.2109 1.203,1.2109 h 23.105" /><path
         id="path42"
         style="fill:#65686c;fill-opacity:1;fill-rule:nonzero;stroke:none"
         d="m 595.938,51.1328 c 0.832,0 1.191,-0.3711 1.191,-1.2109 v -3.125 c 0,-0.8399 -0.359,-1.211 -1.191,-1.211 H 564.973 V 30.0391 h 29.207 c 0.832,0 1.203,-0.3516 1.203,-1.1914 v -3.1446 c 0,-0.8203 -0.371,-1.1914 -1.203,-1.1914 H 564.973 V 6.28906 h 31.89 c 0.832,0 1.196,-0.37109 1.196,-1.11328 V 1.95313 c 0,-0.83985 -0.364,-1.210942 -1.196,-1.210942 h -36.797 c -0.828,0 -1.199,0.371092 -1.199,1.210942 V 49.9219 c 0,0.8398 0.371,1.2109 1.199,1.2109 h 35.872" /><path
         id="path44"
         style="fill:#65686c;fill-opacity:1;fill-rule:nonzero;stroke:none"
         d="m 659.23,51.1328 c 0.836,0 1.297,-0.3711 1.297,-1.2109 V 29.7852 h 31.426 v 20.1367 c 0,0.8398 0.469,1.2109 1.289,1.2109 h 3.516 c 0.84,0 1.301,-0.3711 1.301,-1.2109 V 1.95313 c 0,-0.83985 -0.461,-1.210942 -1.301,-1.210942 h -3.516 c -0.82,0 -1.289,0.371092 -1.289,1.210942 V 24.2188 H 660.527 V 1.95313 c 0,-0.83985 -0.461,-1.210942 -1.297,-1.210942 h -3.605 c -0.828,0 -1.199,0.371092 -1.199,1.210942 V 49.9219 c 0,0.8398 0.371,1.2109 1.199,1.2109 h 3.605" /><path
         id="path46"
         style="fill:#65686c;fill-opacity:1;fill-rule:nonzero;stroke:none"
         d="m 760.156,51.1328 c 0.828,0 1.297,-0.3711 1.297,-1.2109 V 29.7852 h 31.418 v 20.1367 c 0,0.8398 0.457,1.2109 1.301,1.2109 h 3.516 c 0.828,0 1.289,-0.3711 1.289,-1.2109 V 1.95313 c 0,-0.83985 -0.461,-1.210942 -1.289,-1.210942 h -3.516 c -0.844,0 -1.301,0.371092 -1.301,1.210942 V 24.2188 H 761.453 V 1.95313 c 0,-0.83985 -0.469,-1.210942 -1.297,-1.210942 h -3.613 c -0.82,0 -1.199,0.371092 -1.199,1.210942 V 49.9219 c 0,0.8398 0.379,1.2109 1.199,1.2109 h 3.613" /><path
         id="path48"
         style="fill:#65686c;fill-opacity:1;fill-rule:nonzero;stroke:none"
         d="m 893.32,51.1328 c 0.84,0 1.223,-0.3711 1.223,-1.2109 v -3.125 c 0,-0.8399 -0.383,-1.211 -1.223,-1.211 H 862.363 V 30.0391 h 29.219 c 0.82,0 1.211,-0.3516 1.211,-1.1914 v -3.1446 c 0,-0.8203 -0.391,-1.1914 -1.211,-1.1914 H 862.363 V 6.28906 h 31.895 c 0.84,0 1.211,-0.37109 1.211,-1.11328 V 1.95313 c 0,-0.83985 -0.371,-1.210942 -1.211,-1.210942 h -36.785 c -0.84,0 -1.211,0.371092 -1.211,1.210942 V 49.9219 c 0,0.8398 0.371,1.2109 1.211,1.2109 h 35.847" /><path
         id="path50"
         style="fill:#65686c;fill-opacity:1;fill-rule:nonzero;stroke:none"
         d="m 1026.88,6.38672 h 21.9 c 6.29,0 10.54,3.96488 10.54,9.90238 0,5.9179 -3.98,9.6093 -10.54,9.6093 h -21.9 z m 0,25.15628 h 21.16 c 4.07,0 7.67,2.4804 7.67,6.914 0,4.3555 -2.96,7.1289 -8.14,7.1289 h -20.69 z m 30.13,-2.5977 c 5.44,-1.7578 8.41,-7.4805 8.41,-12.6562 0,-8.51566 -7.03,-15.546912 -16.37,-15.546912 h -27.08 c -0.83,0 -1.21,0.371092 -1.21,1.210942 V 50.0195 c 0,0.7422 0.38,1.1133 1.12,1.1133 h 25.6 c 8.98,0 14.33,-5.7226 14.33,-12.6758 0,-3.3203 -1.94,-7.3828 -4.8,-9.1406 v -0.3711" /><path
         id="path52"
         style="fill:#65686c;fill-opacity:1;fill-rule:nonzero;stroke:none"
         d="m 1129.92,17.0117 h 26.54 l -12.4,28.9453 h -1.77 z m 16.92,34.1211 c 0.73,0 1.19,-0.2734 1.47,-0.918 L 1169.3,2.03125 c 0.28,-0.64453 0,-1.289062 -0.65,-1.289062 h -4.33 c -0.68,0 -1.13,0.292972 -1.39,0.917972 l -4.17,9.80464 h -31.15 l -4.26,-9.80464 c -0.18,-0.625 -0.64,-0.917972 -1.39,-0.917972 h -4.44 c -0.73,0 -0.92,0.644532 -0.64,1.289062 l 21.27,48.08595 c 0.27,0.6445 0.83,1.0156 1.47,1.0156 h 7.22" /><path
         id="path54"
         style="fill:#65686c;fill-opacity:1;fill-rule:nonzero;stroke:none"
         d="M 1252.93,6.28906 V 49.9219 c 0,0.8398 0.36,1.2109 1.19,1.2109 h 3.61 c 0.83,0 1.29,-0.3711 1.29,-1.2109 V 6.28906 h 22.47 V 49.9219 c 0,0.8398 0.38,1.2109 1.21,1.2109 h 3.7 c 0.82,0 1.2,-0.3711 1.2,-1.2109 V 1.95313 c 0,-0.83985 -0.38,-1.210942 -1.2,-1.210942 h -60.83 c -0.84,0 -1.21,0.371092 -1.21,1.210942 V 49.9219 c 0,0.8398 0.37,1.2109 1.21,1.2109 h 3.69 c 0.84,0 1.2,-0.3711 1.2,-1.2109 V 6.28906 h 22.47" /><path
         id="path56"
         style="fill:#65686c;fill-opacity:1;fill-rule:nonzero;stroke:none"
         d="m 1355.78,17.0117 h 26.52 l -12.37,28.9453 h -1.76 z m 16.92,34.1211 c 0.75,0 1.2,-0.2734 1.48,-0.918 l 20.99,-48.18355 c 0.26,-0.64453 0,-1.289062 -0.65,-1.289062 h -4.35 c -0.64,0 -1.1,0.292972 -1.39,0.917972 l -4.15,9.80464 h -31.16 l -4.26,-9.80464 c -0.18,-0.625 -0.65,-0.917972 -1.38,-0.917972 h -4.43 c -0.75,0 -0.93,0.644532 -0.66,1.289062 L 1364,50.1172 c 0.3,0.6445 0.83,1.0156 1.5,1.0156 h 7.2" /></g></g></svg>